<mxfile host="Electron" agent="Mozilla/5.0 (Windows NT 10.0; Win64; x64) AppleWebKit/537.36 (KHTML, like Gecko) draw.io/24.7.17 Chrome/128.0.6613.36 Electron/32.0.1 Safari/537.36" version="24.7.17">
  <diagram id="processWord" name="processWord">
    <mxGraphModel dx="558" dy="-1599" grid="1" gridSize="10" guides="1" tooltips="1" connect="1" arrows="1" fold="1" page="1" pageScale="1" pageWidth="827" pageHeight="1169" math="0" shadow="0">
      <root>
        <mxCell id="0" />
        <mxCell id="1" parent="0" />
        <mxCell id="SzfT2a4kxn_qNr8ECGD6-19" value="void processWord(char *word, float *current_x, float *current_y)" style="swimlane;whiteSpace=wrap;html=1;fillColor=#dae8fc;strokeColor=#6c8ebf;" vertex="1" parent="1">
          <mxGeometry y="2338" width="741" height="1919" as="geometry" />
        </mxCell>
        <mxCell id="SzfT2a4kxn_qNr8ECGD6-20" style="edgeStyle=orthogonalEdgeStyle;rounded=0;orthogonalLoop=1;jettySize=auto;html=1;exitX=1;exitY=0.5;exitDx=0;exitDy=0;entryX=0;entryY=0.5;entryDx=0;entryDy=0;" edge="1" parent="SzfT2a4kxn_qNr8ECGD6-19" source="SzfT2a4kxn_qNr8ECGD6-22" target="SzfT2a4kxn_qNr8ECGD6-68">
          <mxGeometry relative="1" as="geometry">
            <mxPoint x="329.3900000000001" y="86" as="targetPoint" />
            <Array as="points">
              <mxPoint x="312" y="65" />
              <mxPoint x="312" y="122" />
            </Array>
          </mxGeometry>
        </mxCell>
        <mxCell id="SzfT2a4kxn_qNr8ECGD6-21" value="Get char from stored word" style="edgeLabel;html=1;align=center;verticalAlign=middle;resizable=0;points=[];" vertex="1" connectable="0" parent="SzfT2a4kxn_qNr8ECGD6-20">
          <mxGeometry x="-0.6545" y="2" relative="1" as="geometry">
            <mxPoint x="56" y="2" as="offset" />
          </mxGeometry>
        </mxCell>
        <mxCell id="SzfT2a4kxn_qNr8ECGD6-22" value="&lt;b&gt;processWord()&lt;/b&gt;" style="shape=step;perimeter=stepPerimeter;whiteSpace=wrap;html=1;fixedSize=1;fillColor=#d5e8d4;strokeColor=#82b366;" vertex="1" parent="SzfT2a4kxn_qNr8ECGD6-19">
          <mxGeometry x="18" y="43" width="143" height="43" as="geometry" />
        </mxCell>
        <mxCell id="SzfT2a4kxn_qNr8ECGD6-23" style="edgeStyle=orthogonalEdgeStyle;rounded=0;orthogonalLoop=1;jettySize=auto;html=1;exitX=0.5;exitY=1;exitDx=0;exitDy=0;" edge="1" parent="SzfT2a4kxn_qNr8ECGD6-19" source="SzfT2a4kxn_qNr8ECGD6-24" target="SzfT2a4kxn_qNr8ECGD6-74">
          <mxGeometry relative="1" as="geometry" />
        </mxCell>
        <mxCell id="SzfT2a4kxn_qNr8ECGD6-24" value="Call: generateGCode()" style="swimlane;whiteSpace=wrap;html=1;fillColor=#ffe6cc;strokeColor=#d79b00;" vertex="1" parent="SzfT2a4kxn_qNr8ECGD6-19">
          <mxGeometry x="54" y="265" width="592.5" height="1510" as="geometry">
            <mxRectangle x="46" y="715" width="156" height="26" as="alternateBounds" />
          </mxGeometry>
        </mxCell>
        <mxCell id="SzfT2a4kxn_qNr8ECGD6-25" value="Scale and calculateÂ &#xa;x coordinates" style="rounded=0;fillColor=#FFFFFF;strokeColor=#666666;fontColor=#000000;fontStyle=0" vertex="1" parent="SzfT2a4kxn_qNr8ECGD6-24">
          <mxGeometry x="307.5" y="96" width="120" height="60" as="geometry" />
        </mxCell>
        <mxCell id="SzfT2a4kxn_qNr8ECGD6-26" value="" style="endArrow=classic;html=1;exitX=0.5;exitY=1;entryX=0.5;entryY=0;fontColor=#FFFFFF;entryDx=0;entryDy=0;" edge="1" parent="SzfT2a4kxn_qNr8ECGD6-24" source="SzfT2a4kxn_qNr8ECGD6-25" target="SzfT2a4kxn_qNr8ECGD6-35">
          <mxGeometry width="50" height="50" relative="1" as="geometry" />
        </mxCell>
        <mxCell id="SzfT2a4kxn_qNr8ECGD6-27" value="" style="edgeStyle=orthogonalEdgeStyle;rounded=0;orthogonalLoop=1;jettySize=auto;html=1;entryX=0.5;entryY=0;entryDx=0;entryDy=0;curved=1;" edge="1" parent="SzfT2a4kxn_qNr8ECGD6-24" source="SzfT2a4kxn_qNr8ECGD6-31" target="SzfT2a4kxn_qNr8ECGD6-43">
          <mxGeometry relative="1" as="geometry">
            <mxPoint x="463" y="602" as="targetPoint" />
          </mxGeometry>
        </mxCell>
        <mxCell id="SzfT2a4kxn_qNr8ECGD6-28" value="Down" style="edgeLabel;html=1;align=center;verticalAlign=middle;resizable=0;points=[];" vertex="1" connectable="0" parent="SzfT2a4kxn_qNr8ECGD6-27">
          <mxGeometry x="0.5973" y="3" relative="1" as="geometry">
            <mxPoint as="offset" />
          </mxGeometry>
        </mxCell>
        <mxCell id="SzfT2a4kxn_qNr8ECGD6-29" style="edgeStyle=orthogonalEdgeStyle;rounded=0;orthogonalLoop=1;jettySize=auto;html=1;exitX=0.5;exitY=1;exitDx=0;exitDy=0;curved=1;" edge="1" parent="SzfT2a4kxn_qNr8ECGD6-24" source="SzfT2a4kxn_qNr8ECGD6-31" target="SzfT2a4kxn_qNr8ECGD6-45">
          <mxGeometry relative="1" as="geometry" />
        </mxCell>
        <mxCell id="SzfT2a4kxn_qNr8ECGD6-30" value="Up" style="edgeLabel;html=1;align=center;verticalAlign=middle;resizable=0;points=[];" vertex="1" connectable="0" parent="SzfT2a4kxn_qNr8ECGD6-29">
          <mxGeometry x="0.5446" y="-7" relative="1" as="geometry">
            <mxPoint x="3" y="7" as="offset" />
          </mxGeometry>
        </mxCell>
        <mxCell id="SzfT2a4kxn_qNr8ECGD6-31" value="Generate pen&#xa;command" style="rounded=0;fillColor=#FFFFFF;strokeColor=#666666;fontColor=#000000;" vertex="1" parent="SzfT2a4kxn_qNr8ECGD6-24">
          <mxGeometry x="403" y="462" width="120" height="60" as="geometry" />
        </mxCell>
        <mxCell id="SzfT2a4kxn_qNr8ECGD6-32" style="edgeStyle=orthogonalEdgeStyle;rounded=0;orthogonalLoop=1;jettySize=auto;html=1;exitX=1;exitY=0.5;exitDx=0;exitDy=0;entryX=0.5;entryY=0;entryDx=0;entryDy=0;" edge="1" parent="SzfT2a4kxn_qNr8ECGD6-24" source="SzfT2a4kxn_qNr8ECGD6-34" target="SzfT2a4kxn_qNr8ECGD6-25">
          <mxGeometry relative="1" as="geometry" />
        </mxCell>
        <mxCell id="SzfT2a4kxn_qNr8ECGD6-33" value="New Character" style="edgeLabel;html=1;align=center;verticalAlign=middle;resizable=0;points=[];" vertex="1" connectable="0" parent="SzfT2a4kxn_qNr8ECGD6-32">
          <mxGeometry x="-0.3261" y="-1" relative="1" as="geometry">
            <mxPoint as="offset" />
          </mxGeometry>
        </mxCell>
        <mxCell id="SzfT2a4kxn_qNr8ECGD6-34" value="&lt;b&gt;generateGCode()&lt;/b&gt;" style="shape=step;perimeter=stepPerimeter;whiteSpace=wrap;html=1;fixedSize=1;fillColor=#d5e8d4;strokeColor=#82b366;" vertex="1" parent="SzfT2a4kxn_qNr8ECGD6-24">
          <mxGeometry x="34" y="49" width="143" height="43" as="geometry" />
        </mxCell>
        <mxCell id="SzfT2a4kxn_qNr8ECGD6-35" value="&lt;span style=&quot;text-wrap: nowrap;&quot;&gt;Scale x and calculate&amp;nbsp;&lt;/span&gt;&lt;br style=&quot;padding: 0px; margin: 0px; text-wrap: nowrap;&quot;&gt;&lt;span style=&quot;text-wrap: nowrap;&quot;&gt;y coordinates&lt;/span&gt;" style="whiteSpace=wrap;html=1;fillColor=#FFFFFF;strokeColor=#666666;fontColor=#000000;rounded=0;fontStyle=0;" vertex="1" parent="SzfT2a4kxn_qNr8ECGD6-24">
          <mxGeometry x="307.5" y="206" width="120" height="60" as="geometry" />
        </mxCell>
        <mxCell id="SzfT2a4kxn_qNr8ECGD6-36" style="edgeStyle=orthogonalEdgeStyle;rounded=0;orthogonalLoop=1;jettySize=auto;html=1;exitX=0.5;exitY=1;exitDx=0;exitDy=0;entryX=0.5;entryY=0;entryDx=0;entryDy=0;" edge="1" parent="SzfT2a4kxn_qNr8ECGD6-24" source="SzfT2a4kxn_qNr8ECGD6-35">
          <mxGeometry relative="1" as="geometry">
            <mxPoint x="367.50000000000045" y="291" as="targetPoint" />
          </mxGeometry>
        </mxCell>
        <mxCell id="SzfT2a4kxn_qNr8ECGD6-37" style="edgeStyle=orthogonalEdgeStyle;rounded=0;orthogonalLoop=1;jettySize=auto;html=1;exitX=1;exitY=1;exitDx=0;exitDy=0;" edge="1" parent="SzfT2a4kxn_qNr8ECGD6-24" source="SzfT2a4kxn_qNr8ECGD6-41" target="SzfT2a4kxn_qNr8ECGD6-31">
          <mxGeometry relative="1" as="geometry" />
        </mxCell>
        <mxCell id="SzfT2a4kxn_qNr8ECGD6-38" value="State Change" style="edgeLabel;html=1;align=center;verticalAlign=middle;resizable=0;points=[];" vertex="1" connectable="0" parent="SzfT2a4kxn_qNr8ECGD6-37">
          <mxGeometry x="-0.2691" y="2" relative="1" as="geometry">
            <mxPoint as="offset" />
          </mxGeometry>
        </mxCell>
        <mxCell id="SzfT2a4kxn_qNr8ECGD6-39" style="edgeStyle=orthogonalEdgeStyle;rounded=0;orthogonalLoop=1;jettySize=auto;html=1;curved=1;" edge="1" parent="SzfT2a4kxn_qNr8ECGD6-24" source="SzfT2a4kxn_qNr8ECGD6-41" target="SzfT2a4kxn_qNr8ECGD6-50">
          <mxGeometry relative="1" as="geometry">
            <Array as="points">
              <mxPoint x="218" y="793" />
            </Array>
          </mxGeometry>
        </mxCell>
        <mxCell id="SzfT2a4kxn_qNr8ECGD6-40" value="No Change" style="edgeLabel;html=1;align=center;verticalAlign=middle;resizable=0;points=[];" vertex="1" connectable="0" parent="SzfT2a4kxn_qNr8ECGD6-39">
          <mxGeometry x="-0.2146" y="2" relative="1" as="geometry">
            <mxPoint as="offset" />
          </mxGeometry>
        </mxCell>
        <mxCell id="SzfT2a4kxn_qNr8ECGD6-41" value="&lt;span style=&quot;text-wrap: nowrap;&quot;&gt;Verify Pen Status&lt;/span&gt;" style="rhombus;whiteSpace=wrap;html=1;rounded=1;fillColor=#f8cecc;strokeColor=#b85450;" vertex="1" parent="SzfT2a4kxn_qNr8ECGD6-24">
          <mxGeometry x="273.5" y="288" width="198" height="128" as="geometry" />
        </mxCell>
        <mxCell id="SzfT2a4kxn_qNr8ECGD6-42" style="edgeStyle=orthogonalEdgeStyle;rounded=0;orthogonalLoop=1;jettySize=auto;html=1;exitX=0.5;exitY=1;exitDx=0;exitDy=0;entryX=0.5;entryY=0;entryDx=0;entryDy=0;" edge="1" parent="SzfT2a4kxn_qNr8ECGD6-24" source="SzfT2a4kxn_qNr8ECGD6-43" target="SzfT2a4kxn_qNr8ECGD6-50">
          <mxGeometry relative="1" as="geometry" />
        </mxCell>
        <mxCell id="SzfT2a4kxn_qNr8ECGD6-43" value="Generate S1000" style="rounded=1;whiteSpace=wrap;html=1;" vertex="1" parent="SzfT2a4kxn_qNr8ECGD6-24">
          <mxGeometry x="333" y="658" width="120" height="42" as="geometry" />
        </mxCell>
        <mxCell id="SzfT2a4kxn_qNr8ECGD6-44" style="edgeStyle=orthogonalEdgeStyle;rounded=0;orthogonalLoop=1;jettySize=auto;html=1;exitX=0.5;exitY=1;exitDx=0;exitDy=0;entryX=0.5;entryY=0;entryDx=0;entryDy=0;" edge="1" parent="SzfT2a4kxn_qNr8ECGD6-24" source="SzfT2a4kxn_qNr8ECGD6-45" target="SzfT2a4kxn_qNr8ECGD6-50">
          <mxGeometry relative="1" as="geometry" />
        </mxCell>
        <mxCell id="SzfT2a4kxn_qNr8ECGD6-45" value="Generate &quot;S0&quot;" style="rounded=1;whiteSpace=wrap;html=1;" vertex="1" parent="SzfT2a4kxn_qNr8ECGD6-24">
          <mxGeometry x="463" y="658" width="120" height="43" as="geometry" />
        </mxCell>
        <mxCell id="SzfT2a4kxn_qNr8ECGD6-46" style="edgeStyle=orthogonalEdgeStyle;rounded=0;orthogonalLoop=1;jettySize=auto;html=1;exitX=0.25;exitY=1;exitDx=0;exitDy=0;entryX=0.5;entryY=0;entryDx=0;entryDy=0;curved=1;" edge="1" parent="SzfT2a4kxn_qNr8ECGD6-24" source="SzfT2a4kxn_qNr8ECGD6-50" target="SzfT2a4kxn_qNr8ECGD6-52">
          <mxGeometry relative="1" as="geometry">
            <mxPoint x="209.13792682516168" y="902.2758578596445" as="targetPoint" />
          </mxGeometry>
        </mxCell>
        <mxCell id="SzfT2a4kxn_qNr8ECGD6-47" value="Pen Down" style="edgeLabel;html=1;align=center;verticalAlign=middle;resizable=0;points=[];" vertex="1" connectable="0" parent="SzfT2a4kxn_qNr8ECGD6-46">
          <mxGeometry x="0.0313" y="-2" relative="1" as="geometry">
            <mxPoint as="offset" />
          </mxGeometry>
        </mxCell>
        <mxCell id="SzfT2a4kxn_qNr8ECGD6-48" style="edgeStyle=orthogonalEdgeStyle;rounded=0;orthogonalLoop=1;jettySize=auto;html=1;exitX=0.75;exitY=1;exitDx=0;exitDy=0;curved=1;" edge="1" parent="SzfT2a4kxn_qNr8ECGD6-24" source="SzfT2a4kxn_qNr8ECGD6-50" target="SzfT2a4kxn_qNr8ECGD6-54">
          <mxGeometry relative="1" as="geometry">
            <mxPoint x="461.8275777882543" y="895.6551850417568" as="targetPoint" />
          </mxGeometry>
        </mxCell>
        <mxCell id="SzfT2a4kxn_qNr8ECGD6-49" value="Pen Up" style="edgeLabel;html=1;align=center;verticalAlign=middle;resizable=0;points=[];" vertex="1" connectable="0" parent="SzfT2a4kxn_qNr8ECGD6-48">
          <mxGeometry x="-0.0736" y="-1" relative="1" as="geometry">
            <mxPoint as="offset" />
          </mxGeometry>
        </mxCell>
        <mxCell id="SzfT2a4kxn_qNr8ECGD6-50" value="Select Movement Type" style="rounded=1;whiteSpace=wrap;html=1;" vertex="1" parent="SzfT2a4kxn_qNr8ECGD6-24">
          <mxGeometry x="260" y="774" width="150" height="37" as="geometry" />
        </mxCell>
        <mxCell id="SzfT2a4kxn_qNr8ECGD6-51" style="edgeStyle=orthogonalEdgeStyle;rounded=0;orthogonalLoop=1;jettySize=auto;html=1;exitX=0.5;exitY=1;exitDx=0;exitDy=0;" edge="1" parent="SzfT2a4kxn_qNr8ECGD6-24" source="SzfT2a4kxn_qNr8ECGD6-52" target="SzfT2a4kxn_qNr8ECGD6-56">
          <mxGeometry relative="1" as="geometry" />
        </mxCell>
        <mxCell id="SzfT2a4kxn_qNr8ECGD6-52" value="Generate G1 Command&lt;br&gt;(movement with drawing)" style="rounded=1;whiteSpace=wrap;html=1;" vertex="1" parent="SzfT2a4kxn_qNr8ECGD6-24">
          <mxGeometry x="173" y="888" width="150" height="37" as="geometry" />
        </mxCell>
        <mxCell id="SzfT2a4kxn_qNr8ECGD6-53" style="edgeStyle=orthogonalEdgeStyle;rounded=0;orthogonalLoop=1;jettySize=auto;html=1;exitX=0.5;exitY=1;exitDx=0;exitDy=0;" edge="1" parent="SzfT2a4kxn_qNr8ECGD6-24" source="SzfT2a4kxn_qNr8ECGD6-54" target="SzfT2a4kxn_qNr8ECGD6-56">
          <mxGeometry relative="1" as="geometry" />
        </mxCell>
        <mxCell id="SzfT2a4kxn_qNr8ECGD6-54" value="Generate G0 Command&lt;br&gt;(movement without drawing)" style="rounded=1;whiteSpace=wrap;html=1;" vertex="1" parent="SzfT2a4kxn_qNr8ECGD6-24">
          <mxGeometry x="340" y="888" width="186" height="37" as="geometry" />
        </mxCell>
        <mxCell id="SzfT2a4kxn_qNr8ECGD6-55" style="edgeStyle=orthogonalEdgeStyle;rounded=0;orthogonalLoop=1;jettySize=auto;html=1;exitX=0.5;exitY=1;exitDx=0;exitDy=0;" edge="1" parent="SzfT2a4kxn_qNr8ECGD6-24" source="SzfT2a4kxn_qNr8ECGD6-56" target="SzfT2a4kxn_qNr8ECGD6-58">
          <mxGeometry relative="1" as="geometry" />
        </mxCell>
        <mxCell id="SzfT2a4kxn_qNr8ECGD6-56" value="Format Command with position&lt;br&gt;Gx Xnew Ynew" style="rounded=1;whiteSpace=wrap;html=1;" vertex="1" parent="SzfT2a4kxn_qNr8ECGD6-24">
          <mxGeometry x="232.5" y="996" width="205" height="37" as="geometry" />
        </mxCell>
        <mxCell id="SzfT2a4kxn_qNr8ECGD6-57" value="" style="edgeStyle=orthogonalEdgeStyle;rounded=0;orthogonalLoop=1;jettySize=auto;html=1;" edge="1" parent="SzfT2a4kxn_qNr8ECGD6-24" source="SzfT2a4kxn_qNr8ECGD6-58" target="SzfT2a4kxn_qNr8ECGD6-64">
          <mxGeometry relative="1" as="geometry" />
        </mxCell>
        <mxCell id="SzfT2a4kxn_qNr8ECGD6-58" value="Send to robot via SendCommands" style="rounded=1;whiteSpace=wrap;html=1;" vertex="1" parent="SzfT2a4kxn_qNr8ECGD6-24">
          <mxGeometry x="236" y="1085" width="198" height="37" as="geometry" />
        </mxCell>
        <mxCell id="SzfT2a4kxn_qNr8ECGD6-59" value="" style="edgeStyle=orthogonalEdgeStyle;rounded=0;orthogonalLoop=1;jettySize=auto;html=1;" edge="1" parent="SzfT2a4kxn_qNr8ECGD6-24" source="SzfT2a4kxn_qNr8ECGD6-61" target="SzfT2a4kxn_qNr8ECGD6-65">
          <mxGeometry relative="1" as="geometry">
            <mxPoint x="335" y="1301" as="targetPoint" />
          </mxGeometry>
        </mxCell>
        <mxCell id="SzfT2a4kxn_qNr8ECGD6-60" value="More chars?" style="edgeLabel;html=1;align=center;verticalAlign=middle;resizable=0;points=[];" vertex="1" connectable="0" parent="SzfT2a4kxn_qNr8ECGD6-59">
          <mxGeometry x="-0.3174" y="2" relative="1" as="geometry">
            <mxPoint as="offset" />
          </mxGeometry>
        </mxCell>
        <mxCell id="SzfT2a4kxn_qNr8ECGD6-61" value="Update currnen y and x position" style="rounded=1;whiteSpace=wrap;html=1;" vertex="1" parent="SzfT2a4kxn_qNr8ECGD6-24">
          <mxGeometry x="229.5" y="1230" width="211" height="37" as="geometry" />
        </mxCell>
        <mxCell id="SzfT2a4kxn_qNr8ECGD6-62" style="edgeStyle=orthogonalEdgeStyle;rounded=0;orthogonalLoop=1;jettySize=auto;html=1;exitX=0.5;exitY=1;exitDx=0;exitDy=0;" edge="1" parent="SzfT2a4kxn_qNr8ECGD6-24" source="SzfT2a4kxn_qNr8ECGD6-64" target="SzfT2a4kxn_qNr8ECGD6-61">
          <mxGeometry relative="1" as="geometry" />
        </mxCell>
        <mxCell id="SzfT2a4kxn_qNr8ECGD6-63" value="ok received" style="edgeLabel;html=1;align=center;verticalAlign=middle;resizable=0;points=[];" vertex="1" connectable="0" parent="SzfT2a4kxn_qNr8ECGD6-62">
          <mxGeometry x="0.1399" y="3" relative="1" as="geometry">
            <mxPoint as="offset" />
          </mxGeometry>
        </mxCell>
        <mxCell id="SzfT2a4kxn_qNr8ECGD6-64" value="WaitOK" style="whiteSpace=wrap;html=1;rounded=1;" vertex="1" parent="SzfT2a4kxn_qNr8ECGD6-24">
          <mxGeometry x="303" y="1154" width="64" height="31" as="geometry" />
        </mxCell>
        <mxCell id="SzfT2a4kxn_qNr8ECGD6-65" value="CheckMore" style="rounded=1;whiteSpace=wrap;html=1;" vertex="1" parent="SzfT2a4kxn_qNr8ECGD6-24">
          <mxGeometry x="278.75" y="1348" width="112.5" height="28" as="geometry" />
        </mxCell>
        <mxCell id="SzfT2a4kxn_qNr8ECGD6-66" style="edgeStyle=orthogonalEdgeStyle;rounded=0;orthogonalLoop=1;jettySize=auto;html=1;exitX=0.25;exitY=1;exitDx=0;exitDy=0;" edge="1" parent="SzfT2a4kxn_qNr8ECGD6-19" source="SzfT2a4kxn_qNr8ECGD6-68" target="SzfT2a4kxn_qNr8ECGD6-71">
          <mxGeometry relative="1" as="geometry">
            <mxPoint x="278.99999237060547" y="208.75" as="targetPoint" />
          </mxGeometry>
        </mxCell>
        <mxCell id="SzfT2a4kxn_qNr8ECGD6-67" value="Get from font data" style="edgeLabel;html=1;align=center;verticalAlign=middle;resizable=0;points=[];" vertex="1" connectable="0" parent="SzfT2a4kxn_qNr8ECGD6-66">
          <mxGeometry x="0.0494" y="-1" relative="1" as="geometry">
            <mxPoint as="offset" />
          </mxGeometry>
        </mxCell>
        <mxCell id="SzfT2a4kxn_qNr8ECGD6-68" value="GetChar" style="rounded=1;whiteSpace=wrap;html=1;" vertex="1" parent="SzfT2a4kxn_qNr8ECGD6-19">
          <mxGeometry x="345" y="107" width="83" height="31" as="geometry" />
        </mxCell>
        <mxCell id="SzfT2a4kxn_qNr8ECGD6-69" style="edgeStyle=orthogonalEdgeStyle;rounded=0;orthogonalLoop=1;jettySize=auto;html=1;exitX=0.5;exitY=1;exitDx=0;exitDy=0;" edge="1" parent="SzfT2a4kxn_qNr8ECGD6-19" source="SzfT2a4kxn_qNr8ECGD6-71" target="SzfT2a4kxn_qNr8ECGD6-24">
          <mxGeometry relative="1" as="geometry">
            <Array as="points">
              <mxPoint x="278" y="245" />
              <mxPoint x="350" y="245" />
            </Array>
          </mxGeometry>
        </mxCell>
        <mxCell id="SzfT2a4kxn_qNr8ECGD6-70" value="scale coordinates" style="edgeLabel;html=1;align=center;verticalAlign=middle;resizable=0;points=[];" vertex="1" connectable="0" parent="SzfT2a4kxn_qNr8ECGD6-69">
          <mxGeometry x="-0.1127" y="-1" relative="1" as="geometry">
            <mxPoint as="offset" />
          </mxGeometry>
        </mxCell>
        <mxCell id="SzfT2a4kxn_qNr8ECGD6-71" value="FontFinder" style="rounded=1;whiteSpace=wrap;html=1;" vertex="1" parent="SzfT2a4kxn_qNr8ECGD6-19">
          <mxGeometry x="236" y="199" width="83" height="31" as="geometry" />
        </mxCell>
        <mxCell id="SzfT2a4kxn_qNr8ECGD6-72" style="edgeStyle=orthogonalEdgeStyle;rounded=0;orthogonalLoop=1;jettySize=auto;html=1;exitX=1;exitY=0.5;exitDx=0;exitDy=0;entryX=1;entryY=0.5;entryDx=0;entryDy=0;" edge="1" parent="SzfT2a4kxn_qNr8ECGD6-19" source="SzfT2a4kxn_qNr8ECGD6-65" target="SzfT2a4kxn_qNr8ECGD6-68">
          <mxGeometry relative="1" as="geometry">
            <Array as="points">
              <mxPoint x="693" y="1627" />
              <mxPoint x="693" y="123" />
            </Array>
          </mxGeometry>
        </mxCell>
        <mxCell id="SzfT2a4kxn_qNr8ECGD6-73" value="yes" style="edgeLabel;html=1;align=center;verticalAlign=middle;resizable=0;points=[];" vertex="1" connectable="0" parent="SzfT2a4kxn_qNr8ECGD6-72">
          <mxGeometry x="-0.9299" y="2" relative="1" as="geometry">
            <mxPoint x="-35" y="2" as="offset" />
          </mxGeometry>
        </mxCell>
        <mxCell id="SzfT2a4kxn_qNr8ECGD6-74" value="CheckEOF" style="rounded=0;whiteSpace=wrap;html=1;fillColor=#f8cecc;strokeColor=#b85450;" vertex="1" parent="SzfT2a4kxn_qNr8ECGD6-19">
          <mxGeometry x="313.25" y="1810" width="74" height="40" as="geometry" />
        </mxCell>
        <mxCell id="SzfT2a4kxn_qNr8ECGD6-80" value="EOF" style="edgeLabel;html=1;align=center;verticalAlign=middle;resizable=0;points=[];" vertex="1" connectable="0" parent="SzfT2a4kxn_qNr8ECGD6-19">
          <mxGeometry x="359.99522672581566" y="1872.0038722409536" as="geometry" />
        </mxCell>
        <mxCell id="SzfT2a4kxn_qNr8ECGD6-75" value="call: returnToHome()" style="swimlane;whiteSpace=wrap;html=1;fillColor=#dae8fc;strokeColor=#6c8ebf;" vertex="1" parent="1">
          <mxGeometry x="250.25" y="4279.95" width="200" height="200" as="geometry" />
        </mxCell>
        <mxCell id="SzfT2a4kxn_qNr8ECGD6-76" style="edgeStyle=orthogonalEdgeStyle;rounded=0;orthogonalLoop=1;jettySize=auto;html=1;" edge="1" parent="SzfT2a4kxn_qNr8ECGD6-75" source="SzfT2a4kxn_qNr8ECGD6-78" target="SzfT2a4kxn_qNr8ECGD6-79">
          <mxGeometry relative="1" as="geometry">
            <mxPoint x="82" y="144.5" as="targetPoint" />
          </mxGeometry>
        </mxCell>
        <mxCell id="SzfT2a4kxn_qNr8ECGD6-77" value="Send G-code commands to robot&lt;br&gt;For it to move back to the &lt;br&gt;top of the global coordinates" style="edgeLabel;html=1;align=center;verticalAlign=middle;resizable=0;points=[];" vertex="1" connectable="0" parent="SzfT2a4kxn_qNr8ECGD6-76">
          <mxGeometry x="-0.1914" y="-2" relative="1" as="geometry">
            <mxPoint x="16" y="1" as="offset" />
          </mxGeometry>
        </mxCell>
        <mxCell id="SzfT2a4kxn_qNr8ECGD6-78" value="Return to Home" style="rounded=1;whiteSpace=wrap;html=1;" vertex="1" parent="SzfT2a4kxn_qNr8ECGD6-75">
          <mxGeometry x="31" y="29.5" width="95" height="26" as="geometry" />
        </mxCell>
        <mxCell id="SzfT2a4kxn_qNr8ECGD6-79" value="Return 1" style="rounded=1;whiteSpace=wrap;html=1;fillColor=#d5e8d4;strokeColor=#82b366;" vertex="1" parent="SzfT2a4kxn_qNr8ECGD6-75">
          <mxGeometry x="36" y="144.5" width="95" height="26" as="geometry" />
        </mxCell>
        <mxCell id="SzfT2a4kxn_qNr8ECGD6-81" style="edgeStyle=orthogonalEdgeStyle;rounded=0;orthogonalLoop=1;jettySize=auto;html=1;exitX=0.5;exitY=1;exitDx=0;exitDy=0;" edge="1" parent="1" source="SzfT2a4kxn_qNr8ECGD6-74" target="SzfT2a4kxn_qNr8ECGD6-75">
          <mxGeometry relative="1" as="geometry" />
        </mxCell>
      </root>
    </mxGraphModel>
  </diagram>
</mxfile>
